<svg width="25" height="29" viewBox="0 0 25 29" fill="none" xmlns="http://www.w3.org/2000/svg">
<path d="M19.1487 12.9406C19.9647 13.4986 20.7966 14.0256 21.5696 14.6566C22.4763 15.4788 23.1715 16.5073 23.5965 17.6552C24.0214 18.803 24.1637 20.0363 24.011 21.2507C23.8584 22.4652 23.4153 23.6249 22.7195 24.6318C22.0237 25.6388 21.0954 26.4633 20.0135 27.0355C18.1231 27.9463 16.0466 28.4044 13.9485 28.3735C9.68352 28.3985 5.41772 28.3735 1.14872 28.3925C0.619717 28.3925 0.433803 28.2756 0.436803 27.7086C0.457803 22.7646 0.436428 17.8205 0.452428 12.8765C0.437961 11.9479 0.791937 11.0515 1.4368 10.3832C2.08167 9.71489 2.96533 9.32921 3.89383 9.31055C4.58583 9.21655 5.29384 9.25553 5.97684 9.11053C9.4365 9.56368 12.8354 10.3967 16.1126 11.5945C16.8459 11.8652 17.5771 12.1382 18.3064 12.4135C18.6418 12.481 18.9415 12.6684 19.1487 12.9406Z" fill="#00DCC0"/>
<path d="M19.1488 12.9405C16.5897 11.9163 13.9691 11.0526 11.3026 10.3545C9.57857 9.97747 7.86758 9.53648 6.11458 9.31248C5.88158 9.14348 5.5058 9.38152 5.3348 9.03752C4.6058 8.83752 3.87476 8.6375 3.14876 8.4265C2.37622 8.2413 1.69063 7.79698 1.20589 7.16758C0.721149 6.53819 0.466468 5.76173 0.484698 4.96751C0.422698 3.63651 0.463983 2.30151 0.451983 0.967511C0.451983 0.698511 0.480565 0.521485 0.823565 0.528485C5.94657 0.628485 11.0747 0.312511 16.1927 0.717511C17.1059 0.79544 18.002 1.01332 18.849 1.36351C22.019 2.65251 22.863 5.4385 22.515 8.3325C22.3978 9.3253 22.026 10.271 21.4364 11.0783C20.8467 11.8855 20.0589 12.5269 19.1488 12.9405Z" fill="#125EEC"/>
</svg>
