<svg width="30" height="30" viewBox="0 0 30 30" fill="none" xmlns="http://www.w3.org/2000/svg">
<path d="M24.8679 29.5407H5.69165C4.38402 29.5367 3.13142 29.0155 2.20679 28.0909C1.28215 27.1662 0.760548 25.9133 0.756592 24.6057V5.42967C0.760812 4.12222 1.28218 2.86953 2.20679 1.94511C3.13139 1.02069 4.3842 0.499622 5.69165 0.495667H24.8679C26.1753 0.499623 27.4278 1.02073 28.3523 1.94518C29.2767 2.86962 29.798 4.12231 29.802 5.42967V24.6057C29.8029 25.2539 29.6756 25.8959 29.428 26.4949C29.1803 27.094 28.817 27.6382 28.3586 28.0966C27.9003 28.5549 27.3561 28.9183 26.7571 29.166C26.158 29.4136 25.5161 29.5406 24.8679 29.5397" fill="#8989A2"/>
<path d="M24.8669 0.478668H15.2791V15.0007H29.801V5.41266C29.8 4.10414 29.2795 2.84952 28.3542 1.92426C27.429 0.998993 26.1745 0.47872 24.866 0.477661" fill="#A0A0BD"/>
<path d="M15.2791 29.5406H24.8669C26.1746 29.5367 27.4277 29.0155 28.3523 28.0909C29.2769 27.1662 29.798 25.9133 29.802 24.6057V15.0176H15.28L15.2791 29.5406Z" fill="#BCBCD8"/>
</svg>
