<svg width="25" height="31" viewBox="0 0 25 31" fill="none" xmlns="http://www.w3.org/2000/svg">
<path fill-rule="evenodd" clip-rule="evenodd" d="M2.77271 28.2267H17.9729C18.909 28.2651 19.8377 28.0465 20.6584 27.5947C21.4792 27.143 22.1604 26.4752 22.6287 25.6637C23.0647 24.8038 23.236 23.8339 23.1208 22.8766C23.0057 21.9193 22.6093 21.0177 21.9817 20.2857L13.1755 9.71872C12.948 9.43984 12.839 9.08293 12.8713 8.72444C12.9037 8.36595 13.0751 8.03438 13.3489 7.80072L22.3137 0.331726L23.45 1.55772L14.9265 8.97972L23.3855 19.1217C24.219 20.1004 24.7544 21.2976 24.928 22.5713C25.1015 23.845 24.9058 25.1418 24.3645 26.3077C23.7902 27.4529 22.8991 28.4088 21.7966 29.0613C20.6941 29.7138 19.427 30.0354 18.1467 29.9877L2.77368 30.0027C2.65782 30.0031 2.54296 29.9806 2.43579 29.9366C2.32862 29.8926 2.23128 29.8278 2.14917 29.7461C2.06706 29.6644 2.0018 29.5672 1.95728 29.4603C1.91275 29.3533 1.89002 29.2386 1.88989 29.1227V29.1067C1.88989 28.9908 1.91281 28.876 1.95728 28.7689C2.00174 28.6618 2.06656 28.5645 2.14868 28.4827C2.23081 28.4008 2.32856 28.336 2.43579 28.2919C2.54303 28.2478 2.65773 28.2253 2.77368 28.2257" fill="#8989A2"/>
<path fill-rule="evenodd" clip-rule="evenodd" d="M2.58276 28.2417L18.0339 25.3957C18.4074 25.317 18.7538 25.1421 19.0388 24.8883C19.3239 24.6345 19.5376 24.3106 19.6589 23.9487C19.7856 23.5889 19.8155 23.2023 19.7463 22.8272C19.6772 22.4521 19.5114 22.1017 19.2649 21.8107C15.6189 17.4237 11.989 13.0677 8.34302 8.66571C8.16559 8.45549 8.03988 8.20639 7.97681 7.93863C7.91373 7.67087 7.91479 7.39202 7.97974 7.12471C8.04378 6.85667 8.16986 6.60743 8.3479 6.39708C8.52594 6.18673 8.75087 6.02116 9.00464 5.91371L22.6106 0.0327148L23.0999 1.76271L10.1257 7.39171C10.0816 7.40643 10.0424 7.43278 10.012 7.46797C9.98152 7.50317 9.96109 7.5459 9.95288 7.59171C9.93979 7.63789 9.93844 7.68666 9.94946 7.73338C9.96049 7.78011 9.98351 7.82324 10.0159 7.8587C13.5669 12.1197 17.0859 16.3497 20.6389 20.6107C21.1153 21.1356 21.4392 21.7808 21.5754 22.4765C21.7117 23.1722 21.6551 23.8918 21.4119 24.5577C21.2057 25.2141 20.8251 25.8021 20.3108 26.2592C19.7965 26.7162 19.168 27.025 18.4919 27.1527L6.27563 29.4007L2.58276 28.2417Z" fill="#8989A2"/>
<path fill-rule="evenodd" clip-rule="evenodd" d="M23.0378 1.77768L7.58569 4.62367C7.20923 4.69521 6.85918 4.86759 6.573 5.12242C6.28682 5.37726 6.07523 5.705 5.96069 6.07068C5.8347 6.43059 5.80499 6.81717 5.87427 7.19215C5.94355 7.56714 6.10943 7.91754 6.35571 8.20868C10.0017 12.5957 13.6316 16.9517 17.2776 21.3387C17.4546 21.5523 17.5798 21.8042 17.6428 22.0744C17.7058 22.3446 17.7051 22.6258 17.6409 22.8957C17.5739 23.1624 17.4465 23.4103 17.2688 23.6202C17.0911 23.8301 16.868 23.9965 16.616 24.1067L3.00952 29.9877L2.52075 28.2577L15.4949 22.6287C15.5362 22.6094 15.573 22.5817 15.6028 22.5472C15.6326 22.5127 15.6546 22.4723 15.6677 22.4287C15.6773 22.3823 15.6767 22.3343 15.6658 22.2882C15.6549 22.2421 15.6341 22.1989 15.6047 22.1617C7.90474 12.9317 11.7857 17.5707 4.98267 9.40967C4.50624 8.88475 4.18239 8.23957 4.04614 7.5439C3.9099 6.84823 3.9665 6.12854 4.20972 5.46268C4.41406 4.8051 4.79405 4.21583 5.30884 3.7585C5.82363 3.30117 6.45355 2.99314 7.13062 2.86768L22.4407 0.0216675L23.0378 1.77768Z" fill="#8989A2"/>
<path fill-rule="evenodd" clip-rule="evenodd" d="M22.8326 1.79371H7.63245C6.69867 1.75803 5.77306 1.97601 4.95325 2.42447C4.13344 2.87294 3.45028 3.53515 2.97669 4.3407C2.54695 5.20585 2.38062 6.17817 2.49866 7.13692C2.61671 8.09568 3.01399 8.99865 3.64075 9.73371L12.4479 20.3007C12.6767 20.5804 12.7853 20.9394 12.7496 21.299C12.714 21.6586 12.5367 21.9894 12.2575 22.2187L3.3097 29.6877L2.17249 28.4617L10.6798 21.0397L2.23548 10.8977C1.40225 9.9189 0.86732 8.72165 0.693973 7.44796C0.520627 6.17427 0.716109 4.87759 1.25745 3.71171C1.82964 2.56872 2.71834 1.61421 3.81751 0.961798C4.91668 0.309386 6.18023 -0.0134574 7.45765 0.0316981L22.8307 0.0157069C23.0664 0.014096 23.2935 0.105658 23.462 0.270468C23.6306 0.435278 23.7269 0.659985 23.7306 0.895697V0.911703C23.7272 1.14759 23.6306 1.37256 23.462 1.53759C23.2935 1.70261 23.0666 1.79431 22.8307 1.7927" fill="#8989A2"/>
<path fill-rule="evenodd" clip-rule="evenodd" d="M11.4675 22.8797L3.30884 29.6887L2.17163 28.4617L9.63696 21.9517L11.4675 22.8797Z" fill="#8989A2"/>
<path fill-rule="evenodd" clip-rule="evenodd" d="M14.0725 25.2067L3.00854 29.9867L2.51978 28.2567L13.1096 23.6657L14.0725 25.2067Z" fill="#8989A2"/>
<path fill-rule="evenodd" clip-rule="evenodd" d="M2.58276 28.2417L14.9568 25.9617L15.4299 27.7067L6.27563 29.4067L2.58276 28.2417Z" fill="#8989A2"/>
<path fill-rule="evenodd" clip-rule="evenodd" d="M2.77271 28.2257H15.5725C15.718 28.8014 15.7924 29.3929 15.7937 29.9867L2.77271 30.0027C2.65684 30.0031 2.54198 29.9806 2.43481 29.9366C2.32765 29.8926 2.23031 29.8278 2.14819 29.7461C2.06608 29.6643 2.00082 29.5672 1.9563 29.4602C1.91178 29.3533 1.88905 29.2386 1.88892 29.1227V29.1067C1.88892 28.9908 1.91184 28.8759 1.9563 28.7689C2.00076 28.6618 2.06558 28.5645 2.14771 28.4827C2.22983 28.4008 2.32758 28.336 2.43481 28.2919C2.54205 28.2478 2.65676 28.2253 2.77271 28.2257Z" fill="#8989A2"/>
</svg>
