<svg width="29" height="39" viewBox="0 0 29 39" fill="none" xmlns="http://www.w3.org/2000/svg">
<path d="M27.8289 15.956C27.6469 16.111 27.5747 16.169 27.5067 16.232C27.2787 16.444 27.0514 16.6567 26.824 16.87C26.6149 16.6238 26.4372 16.3524 26.2957 16.062C26.0437 15.334 25.896 14.569 25.638 13.844C25.2003 12.3563 24.4434 10.9818 23.4207 9.81601C22.4207 12.208 22.4207 12.208 21.8997 12.463C21.716 10.9815 21.4556 9.51046 21.119 8.056C20.712 6.597 20.039 5.21201 19.429 3.65601L18.2371 5.76202C17.7201 4.53202 17.3658 3.48701 16.8528 2.52701C16.3984 1.47193 15.6223 0.587466 14.6351 0C14.4351 5.153 11.8779 8.83401 7.59991 10.152L7.06085 8.22202C5.70817 9.39383 4.71384 10.9239 4.19269 12.636C3.66669 14.283 3.29271 15.978 2.83771 17.68L2.2381 17.401C1.46886 19.1283 1.0014 20.9747 0.85675 22.86C0.19475 30.492 6.48907 37.913 13.7811 38.003C17.0357 38.1609 20.2314 37.0938 22.7381 35.012C28.7431 29.878 29.1269 23.194 27.8289 15.956ZM20.5067 31.891C20.1958 31.9814 19.9098 32.1409 19.6693 32.3575C19.4287 32.5741 19.2403 32.8423 19.118 33.142C18.6391 34.1287 17.8575 34.9369 16.8875 35.4489C15.9176 35.961 14.8098 36.1502 13.7249 35.989C12.622 35.806 11.6162 35.2473 10.8782 34.4074C10.1403 33.5676 9.7157 32.4983 9.67609 31.381C9.62957 31.0137 9.44074 30.6791 9.15069 30.449C8.26238 29.9197 7.56561 29.1212 7.16144 28.1694C6.75726 27.2176 6.66662 26.1618 6.90265 25.155C7.06026 24.2032 7.50191 23.3211 8.16925 22.6243C8.83659 21.9276 9.69873 21.4485 10.6429 21.25C11.6152 20.9497 12.6595 20.9803 13.6126 21.3369C14.5657 21.6936 15.3737 22.3562 15.91 23.221C15.987 23.327 16.0741 23.427 16.1561 23.53L16.2557 23.247C17.5093 23.0243 18.7845 22.9458 20.056 23.013C21.0091 23.1833 21.8737 23.6776 22.5042 24.4124C23.1347 25.1471 23.4923 26.0771 23.5159 27.045C23.6213 28.072 23.3829 29.1049 22.8382 29.9819C22.2935 30.8588 21.473 31.5303 20.5057 31.891H20.5067Z" fill="#8989A2"/>
<path d="M17.3645 28.113C17.7645 27.68 18.0105 27.196 18.3645 27.092C18.5776 27.0485 18.7981 27.0535 19.009 27.1064C19.22 27.1594 19.4164 27.259 19.5837 27.398C19.8527 27.664 19.8456 28.208 20.0066 28.805L17.3645 28.113Z" fill="#8989A2"/>
<path d="M11.017 27.098C11.007 26.174 11.3918 25.68 12.2558 25.709C13.0558 25.736 13.4489 26.19 13.3559 27.098H11.017Z" fill="#8989A2"/>
</svg>
